# This file uses centimeters as units for non-parametric coordinates.

mtllib diana_objeto.mtl
g default
v 4.691375 1.524320 -0.100189
v 3.990722 2.899428 -0.100189
v 2.899428 3.990722 -0.100189
v 1.524320 4.691374 -0.100189
v -0.000000 4.932801 -0.100189
v -1.524320 4.691374 -0.100189
v -2.899428 3.990721 -0.100189
v -3.990720 2.899427 -0.100189
v -4.691373 1.524319 -0.100189
v -4.932800 0.000000 -0.100189
v -4.691373 -1.524319 -0.100189
v -3.990720 -2.899427 -0.100189
v -2.899427 -3.990720 -0.100189
v -1.524319 -4.691372 -0.100189
v -0.000000 -4.932799 -0.100189
v 1.524319 -4.691372 -0.100189
v 2.899427 -3.990719 -0.100189
v 3.990719 -2.899427 -0.100189
v 4.691372 -1.524319 -0.100189
v 4.932799 0.000000 -0.100189
v 4.691375 1.524320 0.100189
v 3.990722 2.899428 0.100189
v 2.899428 3.990722 0.100189
v 1.524320 4.691374 0.100189
v -0.000000 4.932801 0.100189
v -1.524320 4.691374 0.100189
v -2.899428 3.990721 0.100189
v -3.990720 2.899427 0.100189
v -4.691373 1.524319 0.100189
v -4.932800 0.000000 0.100189
v -4.691373 -1.524319 0.100189
v -3.990720 -2.899427 0.100189
v -2.899427 -3.990720 0.100189
v -1.524319 -4.691372 0.100189
v -0.000000 -4.932799 0.100189
v 1.524319 -4.691372 0.100189
v 2.899427 -3.990719 0.100189
v 3.990719 -2.899427 0.100189
v 4.691372 -1.524319 0.100189
v 4.932799 0.000000 0.100189
v -0.000000 0.000000 -0.100189
v -0.000000 0.000000 0.100189
vt 0.584169 0.373812
vt 0.546185 0.452260
vt 0.938469 0.867610
vt 0.976431 0.789158
vt 0.484771 0.515828
vt 0.877061 0.931195
vt 0.405560 0.557533
vt 0.797836 0.972922
vt 0.316464 0.572447
vt 0.708708 0.987849
vt 0.226853 0.558514
vt 0.619057 0.973913
vt 0.146386 0.517010
vt 0.538556 0.932391
vt 0.083701 0.452459
vt 0.475856 0.867811
vt 0.045259 0.371994
vt 0.437421 0.787321
vt 0.034587 0.284332
vt 0.426775 0.699647
vt 0.052042 0.198576
vt 0.444266 0.613900
vt 0.095067 0.123141
vt 0.487322 0.538493
vt 0.158764 0.064939
vt 0.551038 0.480330
vt 0.236629 0.028907
vt 0.628902 0.444336
vt 0.321259 0.017807
vt 0.713517 0.433262
vt 0.404991 0.032234
vt 0.797226 0.447696
vt 0.480413 0.070722
vt 0.872628 0.486171
vt 0.540816 0.129902
vt 0.933023 0.545322
vt 0.580611 0.204693
vt 0.972825 0.620080
vt 0.595750 0.288547
vt 0.987985 0.703907
vt 0.318936 0.286468
vt 0.711188 0.701806
vt 0.022516 0.306338
vt 0.022517 0.354753
vt 0.016231 0.354753
vt 0.016230 0.306338
vt 0.022519 0.403169
vt 0.016233 0.403169
vt 0.022521 0.451584
vt 0.016235 0.451585
vt 0.022523 0.500000
vt 0.016236 0.500000
vt 0.022524 0.548415
vt 0.016238 0.548416
vt 0.022526 0.596831
vt 0.016240 0.596831
vt 0.022528 0.645246
vt 0.016242 0.645247
vt 0.022530 0.693662
vt 0.016244 0.693662
vt 0.022531 0.742077
vt 0.016245 0.742078
vt 0.022533 0.790493
vt 0.016247 0.790493
vt 0.022535 0.838909
vt 0.016249 0.838909
vt 0.022536 0.887324
vt 0.016250 0.887324
vt 0.022538 0.935740
vt 0.016252 0.935740
vt 0.022540 0.984155
vt 0.016219 0.015845
vt 0.022507 0.064260
vt 0.016221 0.064260
vt 0.022509 0.112676
vt 0.016223 0.112676
vt 0.022510 0.161091
vt 0.016224 0.161091
vt 0.022512 0.209507
vt 0.016226 0.209507
vt 0.022514 0.257922
vt 0.016228 0.257922
vt 0.022505 0.015845
vt 0.016254 0.984155
vn 0.951057 0.309016 0.000000
vn 0.809017 0.587785 0.000000
vn 0.809017 0.587785 0.000000
vn 0.951057 0.309016 0.000000
vn 0.587785 0.809017 0.000000
vn 0.587785 0.809017 0.000000
vn 0.309016 0.951057 0.000000
vn 0.309016 0.951057 0.000000
vn -0.000000 1.000000 0.000000
vn -0.000000 1.000000 0.000000
vn -0.309017 0.951057 0.000000
vn -0.309017 0.951057 0.000000
vn -0.587786 0.809017 0.000000
vn -0.587786 0.809017 0.000000
vn -0.809017 0.587785 0.000000
vn -0.809017 0.587785 0.000000
vn -0.951057 0.309017 0.000000
vn -0.951057 0.309017 0.000000
vn -1.000000 0.000000 0.000000
vn -1.000000 0.000000 0.000000
vn -0.951057 -0.309017 -0.000000
vn -0.951057 -0.309017 -0.000000
vn -0.809017 -0.587785 -0.000000
vn -0.809017 -0.587785 -0.000000
vn -0.587785 -0.809017 -0.000000
vn -0.587785 -0.809017 -0.000000
vn -0.309017 -0.951057 -0.000000
vn -0.309017 -0.951057 -0.000000
vn 0.000000 -1.000000 -0.000000
vn 0.000000 -1.000000 -0.000000
vn 0.309017 -0.951057 -0.000000
vn 0.309017 -0.951057 -0.000000
vn 0.587785 -0.809017 -0.000000
vn 0.587785 -0.809017 -0.000000
vn 0.809017 -0.587785 -0.000000
vn 0.809017 -0.587785 -0.000000
vn 0.951057 -0.309017 -0.000000
vn 0.951057 -0.309017 -0.000000
vn 1.000000 -0.000001 -0.000000
vn 1.000000 -0.000001 -0.000000
vn 0.000000 -0.000000 -1.000000
vn 0.000000 -0.000000 -1.000000
vn 0.000000 -0.000000 -1.000000
vn 0.000000 -0.000000 -1.000000
vn 0.000000 0.000000 -1.000000
vn 0.000000 0.000000 -1.000000
vn 0.000000 0.000000 -1.000000
vn 0.000000 0.000000 -1.000000
vn 0.000000 0.000000 -1.000000
vn 0.000000 0.000000 -1.000000
vn 0.000000 0.000000 -1.000000
vn 0.000000 0.000000 -1.000000
vn 0.000000 0.000000 -1.000000
vn 0.000000 0.000000 -1.000000
vn 0.000000 -0.000000 -1.000000
vn 0.000000 -0.000000 -1.000000
vn 0.000000 0.000000 -1.000000
vn 0.000000 0.000000 -1.000000
vn 0.000000 0.000000 -1.000000
vn 0.000000 0.000000 -1.000000
vn 0.000000 -0.000000 -1.000000
vn 0.000000 0.000000 1.000000
vn 0.000000 -0.000000 1.000000
vn 0.000000 -0.000000 1.000000
vn 0.000000 -0.000000 1.000000
vn 0.000000 0.000000 1.000000
vn 0.000000 -0.000000 1.000000
vn 0.000000 -0.000000 1.000000
vn 0.000000 -0.000000 1.000000
vn 0.000000 -0.000000 1.000000
vn 0.000000 -0.000000 1.000000
vn 0.000000 -0.000000 1.000000
vn 0.000000 -0.000000 1.000000
vn 0.000000 -0.000000 1.000000
vn 0.000000 -0.000000 1.000000
vn 0.000000 -0.000000 1.000000
vn 0.000000 -0.000000 1.000000
vn 0.000000 0.000000 1.000000
vn 0.000000 0.000000 1.000000
vn 0.000000 0.000000 1.000000
vn 0.000000 0.000000 1.000000
vn 0.000000 -0.000000 1.000000
s 1
g pCylinder1
usemtl aiStandardSurface1SG
f 1/43/1 2/44/2 22/45/3 21/46/4
f 2/44/2 3/47/5 23/48/6 22/45/3
f 3/47/5 4/49/7 24/50/8 23/48/6
f 4/49/7 5/51/9 25/52/10 24/50/8
f 5/51/9 6/53/11 26/54/12 25/52/10
f 6/53/11 7/55/13 27/56/14 26/54/12
f 7/55/13 8/57/15 28/58/16 27/56/14
f 8/57/15 9/59/17 29/60/18 28/58/16
f 9/59/17 10/61/19 30/62/20 29/60/18
f 10/61/19 11/63/21 31/64/22 30/62/20
f 11/63/21 12/65/23 32/66/24 31/64/22
f 12/65/23 13/67/25 33/68/26 32/66/24
f 13/67/25 14/69/27 34/70/28 33/68/26
f 14/69/27 15/71/29 35/84/30 34/70/28
f 15/83/29 16/73/31 36/74/32 35/72/30
f 16/73/31 17/75/33 37/76/34 36/74/32
f 17/75/33 18/77/35 38/78/36 37/76/34
f 18/77/35 19/79/37 39/80/38 38/78/36
f 19/79/37 20/81/39 40/82/40 39/80/38
f 20/81/39 1/43/1 21/46/4 40/82/40
s 2
f 2/2/41 1/1/42 41/41/43
f 3/5/44 2/2/41 41/41/43
f 4/7/45 3/5/44 41/41/43
f 5/9/46 4/7/45 41/41/43
f 6/11/47 5/9/46 41/41/43
f 7/13/48 6/11/47 41/41/43
f 8/15/49 7/13/48 41/41/43
f 9/17/50 8/15/49 41/41/43
f 10/19/51 9/17/50 41/41/43
f 11/21/52 10/19/51 41/41/43
f 12/23/53 11/21/52 41/41/43
f 13/25/54 12/23/53 41/41/43
f 14/27/55 13/25/54 41/41/43
f 15/29/56 14/27/55 41/41/43
f 16/31/57 15/29/56 41/41/43
f 17/33/58 16/31/57 41/41/43
f 18/35/59 17/33/58 41/41/43
f 19/37/60 18/35/59 41/41/43
f 20/39/61 19/37/60 41/41/43
f 1/1/42 20/39/61 41/41/43
s 3
f 42/42/62 21/4/63 22/3/64
f 42/42/62 22/3/64 23/6/65
f 42/42/62 23/6/65 24/8/66
f 42/42/62 24/8/66 25/10/67
f 42/42/62 25/10/67 26/12/68
f 42/42/62 26/12/68 27/14/69
f 42/42/62 27/14/69 28/16/70
f 42/42/62 28/16/70 29/18/71
f 42/42/62 29/18/71 30/20/72
f 42/42/62 30/20/72 31/22/73
f 42/42/62 31/22/73 32/24/74
f 42/42/62 32/24/74 33/26/75
f 42/42/62 33/26/75 34/28/76
f 42/42/62 34/28/76 35/30/77
f 42/42/62 35/30/77 36/32/78
f 42/42/62 36/32/78 37/34/79
f 42/42/62 37/34/79 38/36/80
f 42/42/62 38/36/80 39/38/81
f 42/42/62 39/38/81 40/40/82
f 21/4/63 42/42/62 40/40/82
